# File created by Blade
# Date/Time:  Tue Apr 07 21:33:03 2015
# Frame Rate: 120.000 fps
#------------------------------------------------------
:FULLY-SPECIFIED
:DEGREES
947
root -12.076033 32.787937 11.947463 22.908216 -56.422787 -11.615639
Spine -11.022575 -3.685227 4.215077
Head 7.724731 3.756714 -0.124172
LeftShoulder -22.542159 43.135213 16.169371
LeftArm 60.432901 -54.678174 -79.485834
LeftForeArm -1.627613 -0.000000 7.235648
LeftHand 12.763177 -0.000000 20.776279
LeftHandThumb1 -26.253704 0.000000 33.147579
RightShoulder -5.509000 3.813854 -28.087697
RightArm 14.622553 12.170420 52.797051
RightForeArm -10.190733 -0.000000 17.985436
RightHand 9.292807 0.000000 -7.614020
RightHandThumb1 -24.326973 -0.000000 -32.862282
LeftUpLeg -31.706519 -0.962123 14.047035
LeftLeg 12.633144 -0.000000 -0.000000
LeftFoot 8.847935 13.298185 -30.854775
LeftToeBase -11.788884 -0.000000 0.000000
RightUpLeg -3.031002 9.336643 3.223497
RightLeg 14.050391 -0.000000 -0.000000
RightFoot -7.857127 -9.378712 8.604518
RightToeBase -23.689867 -0.000000 0.000000
948
root -11.951261 32.738219 11.727098 22.570701 -56.247062 -11.451550
Spine -10.635144 -3.486919 4.322935
Head 7.192408 4.569485 -0.643543
LeftShoulder -22.873751 43.084361 15.884996
LeftArm 60.567409 -54.724008 -79.805205
LeftForeArm -1.754879 -0.000000 7.121121
LeftHand 12.791673 -0.000000 20.587578
LeftHandThumb1 -26.253704 0.000000 33.147579
RightShoulder -5.415889 3.903596 -28.116786
RightArm 14.700254 11.945877 53.026854
RightForeArm -9.996373 -0.000000 17.976313
RightHand 9.360734 -0.000000 -7.434532
RightHandThumb1 -24.326973 -0.000000 -32.862282
LeftUpLeg -31.886188 -0.818827 14.141415
LeftLeg 12.390419 -0.000000 -0.000000
LeftFoot 9.537332 13.401563 -31.176778
LeftToeBase -11.580418 -0.000000 0.000000
RightUpLeg -3.112631 9.093047 3.496788
RightLeg 14.080915 -0.000000 -0.000000
RightFoot -8.471852 -9.941803 8.101746
RightToeBase -23.110579 -0.000000 0.000000
949
root -11.823537 32.691856 11.502906 22.200005 -55.995104 -11.270574
Spine -10.223648 -3.274138 4.443439
Head 6.670462 5.366716 -1.183413
LeftShoulder -22.751252 42.699245 15.992696
LeftArm 59.750388 -54.755272 -79.456630
LeftForeArm -1.962410 -0.000000 7.100353
LeftHand 12.813293 -0.000000 20.377903
LeftHandThumb1 -26.253704 0.000000 33.147579
RightShoulder -5.317047 4.028393 -28.132663
RightArm 14.703558 11.787345 53.215581
RightForeArm -9.900325 0.000000 17.956332
RightHand 8.939909 -0.000000 -6.964565
RightHandThumb1 -24.326973 -0.000000 -32.862282
LeftUpLeg -32.066176 -0.580258 14.163729
LeftLeg 12.096871 -0.000000 -0.000000
LeftFoot 10.486824 13.444725 -31.273309
LeftToeBase -11.637265 -0.000000 0.000000
RightUpLeg -3.185889 8.812055 3.799790
RightLeg 14.094835 -0.000000 -0.000000
RightFoot -9.161972 -10.529707 7.708951
RightToeBase -21.965904 -0.000000 0.000000
950
root -11.696254 32.650185 11.269977 21.845679 -55.685373 -11.144027
Spine -9.761465 -3.075120 4.596021
Head 6.140440 6.193702 -1.725714
LeftShoulder -22.923877 42.511632 15.770985
LeftArm 59.534846 -54.642697 -79.287655
LeftForeArm -2.243067 0.000000 6.908831
LeftHand 12.890808 -0.000000 20.232312
LeftHandThumb1 -26.253704 0.000000 33.147579
RightShoulder -5.210691 4.037532 -28.158614
RightArm 14.746148 11.633577 53.431069
RightForeArm -9.723267 -0.000000 17.911709
RightHand 9.104480 -0.000000 -7.128735
RightHandThumb1 -24.326973 -0.000000 -32.862282
LeftUpLeg -32.223625 -0.293330 14.207433
LeftLeg 11.736633 -0.000000 -0.000000
LeftFoot 11.579810 13.511914 -31.547755
LeftToeBase -11.767767 -0.000000 0.000000
RightUpLeg -3.188990 8.700217 4.185771
RightLeg 13.943340 -0.000000 -0.000000
RightFoot -9.727431 -11.402721 7.293149
RightToeBase -21.275843 -0.000000 0.000000
951
root -11.565934 32.612109 11.034256 21.442629 -55.343426 -10.937261
Spine -9.318100 -2.899339 4.691904
Head 5.564808 6.949304 -2.297939
LeftShoulder -23.236946 42.583948 15.392094
LeftArm 59.878379 -54.478553 -79.498271
LeftForeArm -2.268591 -0.000000 6.730656
LeftHand 12.598646 -0.000000 20.113336
LeftHandThumb1 -26.253704 0.000000 33.147579
RightShoulder -5.076607 4.018105 -28.119894
RightArm 14.787272 11.291029 53.506197
RightForeArm -9.481619 -0.000000 17.858316
RightHand 8.875107 -0.000000 -7.167538
RightHandThumb1 -24.326973 -0.000000 -32.862282
LeftUpLeg -32.395276 0.005609 14.185932
LeftLeg 11.298599 -0.000000 -0.000000
LeftFoot 12.870752 13.632897 -31.683471
LeftToeBase -11.740973 -0.000000 0.000000
RightUpLeg -3.232347 8.705126 4.543887
RightLeg 13.786134 -0.000000 -0.000000
RightFoot -10.407371 -12.441676 7.016647
RightToeBase -19.794426 -0.000000 0.000000
952
root -11.431802 32.578258 10.792290 20.993748 -54.961143 -10.702683
Spine -8.827320 -2.657757 4.751121
Head 5.036891 7.574246 -2.834229
LeftShoulder -23.406828 42.568567 15.138983
LeftArm 60.109942 -54.227563 -79.548619
LeftForeArm -2.386217 -0.000000 6.470474
LeftHand 12.507144 -0.000000 19.970495
LeftHandThumb1 -26.253704 0.000000 33.147579
RightShoulder -4.998244 3.763065 -28.061317
RightArm 14.936918 11.042472 53.589749
RightForeArm -9.215337 -0.000000 17.849905
RightHand 8.695890 -0.000000 -6.897642
RightHandThumb1 -24.326973 -0.000000 -32.862282
LeftUpLeg -32.567973 0.369768 14.096085
LeftLeg 10.799921 -0.000000 -0.000000
LeftFoot 14.340321 13.800072 -31.932064
LeftToeBase -11.612362 -0.000000 0.000000
RightUpLeg -3.264971 8.771516 4.911443
RightLeg 13.589833 -0.000000 -0.000000
RightFoot -10.979358 -13.650953 6.565476
RightToeBase -18.523954 -0.000000 0.000000
953
root -11.293956 32.547651 10.550147 20.462493 -54.540208 -10.342948
Spine -8.345390 -2.422908 4.741605
Head 4.492167 8.207386 -3.345948
LeftShoulder -23.520595 42.550461 14.902666
LeftArm 60.249511 -53.922299 -79.407590
LeftForeArm -2.513572 -0.000000 6.119576
LeftHand 12.563641 -0.000000 19.631255
LeftHandThumb1 -26.253704 0.000000 33.147579
RightShoulder -4.956255 3.580411 -28.063868
RightArm 14.964269 10.662617 53.696159
RightForeArm -8.999055 0.000000 17.817468
RightHand 8.887465 -0.000000 -7.122837
RightHandThumb1 -24.326973 -0.000000 -32.862282
LeftUpLeg -32.765296 0.787239 13.876054
LeftLeg 10.215736 -0.000000 -0.000000
LeftFoot 16.077813 13.978396 -32.106012
LeftToeBase -11.553970 -0.000000 0.000000
RightUpLeg -3.395130 8.702098 5.206139
RightLeg 13.522713 -0.000000 -0.000000
RightFoot -11.571829 -14.707243 6.314202
RightToeBase -17.539618 -0.000000 0.000000
954
root -11.150721 32.519401 10.308189 19.839195 -54.046257 -9.842772
Spine -7.897046 -2.240013 4.649416
Head 3.991085 8.805519 -3.791258
LeftShoulder -23.554899 42.421356 14.759451
LeftArm 60.116498 -53.500274 -78.903118
LeftForeArm -2.627276 -0.000000 5.701830
LeftHand 12.365032 -0.000000 19.232237
LeftHandThumb1 -26.253704 0.000000 33.147579
RightShoulder -4.878118 3.405984 -28.041695
RightArm 14.980237 10.394688 53.809967
RightForeArm -8.921072 -0.000000 17.725926
RightHand 8.924387 -0.000000 -7.165773
RightHandThumb1 -24.326973 -0.000000 -32.862282
LeftUpLeg -33.010243 1.260774 13.488564
LeftLeg 9.561099 -0.000000 -0.000000
LeftFoot 17.989375 14.274016 -32.341882
LeftToeBase -11.302446 -0.000000 0.000000
RightUpLeg -3.615003 8.446603 5.424007
RightLeg 13.578257 -0.000000 -0.000000
RightFoot -12.101342 -15.689684 5.898415
RightToeBase -16.770080 -0.000000 0.000000
955
root -11.007712 32.494608 10.066408 19.149685 -53.479627 -9.181989
Spine -7.523185 -2.198595 4.464163
Head 3.458239 9.399712 -4.240827
LeftShoulder -23.721390 42.257526 14.528897
LeftArm 59.962964 -52.998150 -78.211071
LeftForeArm -2.689395 -0.000000 5.159771
LeftHand 12.405871 -0.000000 18.787923
LeftHandThumb1 -26.253704 0.000000 33.147579
RightShoulder -4.773624 3.176794 -28.009175
RightArm 15.161701 10.446096 54.078117
RightForeArm -9.091471 0.000000 17.444415
RightHand 9.072161 -0.000000 -7.084349
RightHandThumb1 -24.326973 -0.000000 -32.862282
LeftUpLeg -33.306926 1.826538 12.918938
LeftLeg 8.776938 -0.000000 -0.000000
LeftFoot 20.279346 14.462525 -32.481937
LeftToeBase -11.063328 -0.000000 0.000000
RightUpLeg -3.954143 7.960134 5.540391
RightLeg 13.755440 -0.000000 -0.000000
RightFoot -12.727215 -16.474753 5.657675
RightToeBase -15.820182 -0.000000 0.000000
956
root -10.868457 32.473816 9.824980 18.492189 -52.812147 -8.501667
Spine -7.209074 -2.279958 4.284190
Head 2.907905 10.045198 -4.665875
LeftShoulder -23.969073 42.165153 14.210106
LeftArm 59.975592 -52.527251 -77.629163
LeftForeArm -2.817058 0.000000 4.633962
LeftHand 12.273207 -0.000000 18.083051
LeftHandThumb1 -26.253704 0.000000 33.147579
RightShoulder -4.664210 3.083175 -27.961587
RightArm 15.200219 10.141258 54.199994
RightForeArm -9.095086 0.000000 17.261344
RightHand 9.060762 -0.000000 -7.171286
RightHandThumb1 -24.326973 -0.000000 -32.862282
LeftUpLeg -33.648376 2.425465 12.287755
LeftLeg 7.931046 -0.000000 -0.000000
LeftFoot 22.696399 14.653482 -32.755913
LeftToeBase -10.270141 -0.000000 0.000000
RightUpLeg -4.291617 7.412711 5.629128
RightLeg 13.824126 -0.000000 -0.000000
RightFoot -13.226148 -17.176644 5.366035
RightToeBase -14.966406 -0.000000 0.000000
957
root -10.732502 32.454368 9.585060 17.858111 -52.079817 -7.874432
Spine -6.915892 -2.226837 4.092029
Head 2.540442 10.488663 -4.976797
LeftShoulder -23.960511 42.234483 14.094554
LeftArm 60.162251 -51.998722 -77.217303
LeftForeArm -2.879977 -0.000000 4.090798
LeftHand 12.375703 -0.000000 17.557024
LeftHandThumb1 -26.253704 0.000000 33.147579
RightShoulder -4.646425 2.870978 -27.891302
RightArm 15.212524 9.786784 54.240685
RightForeArm -8.885083 -0.000000 16.991300
RightHand 9.170707 -0.000000 -7.095920
RightHandThumb1 -24.326973 -0.000000 -32.862282
LeftUpLeg -33.935485 2.968881 11.675104
LeftLeg 7.035150 -0.000000 -0.000000
LeftFoot 24.871295 14.977153 -33.422781
LeftToeBase -8.662844 -0.000000 0.000000
RightUpLeg -4.552920 6.887296 5.737292
RightLeg 13.771032 -0.000000 -0.000000
RightFoot -13.680140 -17.845811 5.074430
RightToeBase -14.113350 -0.000000 0.000000
